<?xml version="1.0" standalone="no"?>
<!DOCTYPE svg PUBLIC "-//W3C//DTD SVG 20010904//EN"
 "http://www.w3.org/TR/2001/REC-SVG-20010904/DTD/svg10.dtd">
<svg version="1.0" xmlns="http://www.w3.org/2000/svg"
 width="512.000000pt" height="512.000000pt" viewBox="0 0 512.000000 512.000000"
 preserveAspectRatio="xMidYMid meet">
<metadata>
Created by potrace 1.14, written by Peter Selinger 2001-2017
</metadata>
<g transform="translate(0.000000,512.000000) scale(0.100000,-0.100000)"
fill="#000000" stroke="none">
<path d="M2735 3794 c-429 -61 -756 -277 -962 -636 -82 -142 -152 -365 -153
-480 l0 -38 105 0 c105 0 105 0 105 24 0 46 30 167 63 256 114 302 392 551
712 635 282 74 604 19 845 -145 91 -62 210 -179 269 -265 52 -75 125 -218 137
-267 l6 -28 -189 0 -190 0 -38 62 c-81 130 -218 236 -370 284 -172 55 -342 41
-514 -43 -78 -37 -109 -59 -176 -127 -67 -66 -91 -99 -129 -176 -51 -104 -76
-201 -76 -297 l0 -63 295 0 c162 0 295 -3 295 -7 -1 -28 -33 -120 -60 -172
-44 -81 -122 -154 -216 -198 -65 -31 -88 -37 -169 -41 -76 -4 -106 -1 -163 17
-141 43 -264 157 -313 291 l-22 60 -392 0 -392 0 9 -67 c16 -123 57 -255 118
-379 179 -368 515 -620 914 -689 114 -19 316 -19 431 1 435 75 811 390 959
804 29 79 60 204 71 283 l6 47 -106 0 c-76 0 -107 -3 -109 -12 -2 -7 -11 -53
-20 -103 -60 -316 -308 -618 -610 -744 -149 -62 -224 -76 -411 -76 -144 1
-183 4 -251 23 -314 85 -562 291 -694 576 -21 44 -41 91 -45 104 l-6 22 193 0
193 0 30 -52 c17 -28 62 -84 102 -124 57 -57 92 -82 165 -118 119 -59 189 -76
309 -76 377 0 689 301 689 667 l0 73 -294 0 -294 0 9 43 c28 124 128 257 238
316 267 142 596 9 681 -276 l13 -43 394 0 394 0 -6 58 c-4 31 -18 98 -30 148
-119 472 -486 824 -970 930 -68 14 -320 27 -380 18z"/>
</g>
</svg>
